<svg width="235" height="58" viewBox="0 0 235 58" fill="none" xmlns="http://www.w3.org/2000/svg">
<path d="M7.64 29C7.64 27.1333 8.05333 25.52 8.88 24.16C9.73333 22.8 10.84 21.76 12.2 21.04C13.56 20.2933 15.04 19.92 16.64 19.92C17.9733 19.92 19.16 20.0933 20.2 20.44C21.24 20.7867 22.1733 21.2533 23 21.84C23.8533 22.4267 24.5867 23.0667 25.2 23.76V17.32C24.0533 16.4133 22.8 15.7067 21.44 15.2C20.1067 14.6933 18.4133 14.44 16.36 14.44C14.2267 14.44 12.24 14.7867 10.4 15.48C8.58667 16.1733 7 17.1733 5.64 18.48C4.30667 19.7867 3.26667 21.3333 2.52 23.12C1.8 24.88 1.44 26.84 1.44 29C1.44 31.16 1.8 33.1333 2.52 34.92C3.26667 36.68 4.30667 38.2133 5.64 39.52C7 40.8267 8.58667 41.8267 10.4 42.52C12.24 43.2133 14.2267 43.56 16.36 43.56C18.4133 43.56 20.1067 43.3067 21.44 42.8C22.8 42.2933 24.0533 41.5867 25.2 40.68V34.24C24.5867 34.9333 23.8533 35.5733 23 36.16C22.1733 36.7467 21.24 37.2133 20.2 37.56C19.16 37.9067 17.9733 38.08 16.64 38.08C15.04 38.08 13.56 37.72 12.2 37C10.84 36.2533 9.73333 35.2 8.88 33.84C8.05333 32.4533 7.64 30.84 7.64 29ZM35.6116 11.8H30.4116V43H35.6116V11.8ZM42.2916 31.8V43H47.4916V31.04C47.4916 29.52 47.2649 28.24 46.8116 27.2C46.3582 26.1333 45.6649 25.3333 44.7316 24.8C43.7982 24.2667 42.6116 24 41.1716 24C39.7316 24 38.5182 24.3467 37.5316 25.04C36.5449 25.7333 35.7982 26.6667 35.2916 27.84C34.8116 29.0133 34.5716 30.3333 34.5716 31.8H35.6116C35.6116 31.0267 35.7582 30.36 36.0516 29.8C36.3449 29.24 36.7716 28.8133 37.3316 28.52C37.8916 28.2 38.5316 28.04 39.2516 28.04C40.3449 28.04 41.1182 28.36 41.5716 29C42.0516 29.64 42.2916 30.5733 42.2916 31.8ZM56.2791 37.28C56.2791 36.7467 56.3991 36.3067 56.6391 35.96C56.8791 35.5867 57.2524 35.3067 57.7591 35.12C58.2657 34.9067 58.9191 34.8 59.7191 34.8C60.7057 34.8 61.6391 34.9333 62.5191 35.2C63.4257 35.4667 64.2391 35.8667 64.9591 36.4V34C64.6924 33.68 64.2524 33.3467 63.6391 33C63.0257 32.6533 62.2657 32.36 61.3591 32.12C60.4791 31.88 59.4524 31.76 58.2791 31.76C55.9857 31.76 54.2124 32.28 52.9591 33.32C51.7057 34.36 51.0791 35.7733 51.0791 37.56C51.0791 38.8133 51.3724 39.88 51.9591 40.76C52.5724 41.6133 53.3724 42.2667 54.3591 42.72C55.3457 43.1733 56.4124 43.4 57.5591 43.4C58.6791 43.4 59.7457 43.2 60.7591 42.8C61.7991 42.4 62.6391 41.8 63.2791 41C63.9457 40.2 64.2791 39.2133 64.2791 38.04L63.6391 35.64C63.6391 36.52 63.4391 37.28 63.0391 37.92C62.6391 38.5333 62.1191 39.0133 61.4791 39.36C60.8391 39.68 60.1191 39.84 59.3191 39.84C58.7591 39.84 58.2391 39.7467 57.7591 39.56C57.3057 39.3467 56.9457 39.0533 56.6791 38.68C56.4124 38.28 56.2791 37.8133 56.2791 37.28ZM54.2791 29.8C54.5457 29.6133 54.9591 29.3867 55.5191 29.12C56.0791 28.8533 56.7457 28.6267 57.5191 28.44C58.2924 28.2533 59.1057 28.16 59.9591 28.16C60.5191 28.16 61.0257 28.2133 61.4791 28.32C61.9324 28.4267 62.3191 28.6 62.6391 28.84C62.9857 29.08 63.2391 29.3867 63.3991 29.76C63.5591 30.1067 63.6391 30.5333 63.6391 31.04V43H68.6391V29.96C68.6391 28.7067 68.2924 27.6533 67.5991 26.8C66.9057 25.92 65.9457 25.2533 64.7191 24.8C63.4924 24.3467 62.0924 24.12 60.5191 24.12C58.8124 24.12 57.2657 24.36 55.8791 24.84C54.4924 25.2933 53.3191 25.7733 52.3591 26.28L54.2791 29.8ZM71.0984 24.6V28.96H82.4584V24.6H71.0984ZM74.2584 18.2V43H79.2584V18.2H74.2584Z" fill="black"/>
<path d="M132.2 24.6V28.96H143.56V24.6H132.2ZM135.36 18.2V43H140.36V18.2H135.36ZM151.398 24.6H146.318V43H151.398V24.6ZM156.798 30L159.158 25.6C158.784 25.12 158.291 24.76 157.678 24.52C157.091 24.28 156.464 24.16 155.798 24.16C154.838 24.16 153.904 24.5067 152.998 25.2C152.091 25.8667 151.358 26.7733 150.798 27.92C150.238 29.04 149.958 30.3333 149.958 31.8L151.398 33.24C151.398 32.36 151.504 31.6133 151.718 31C151.958 30.36 152.304 29.8667 152.758 29.52C153.211 29.1733 153.758 29 154.398 29C154.931 29 155.371 29.0933 155.718 29.28C156.091 29.44 156.451 29.68 156.798 30ZM169.998 43.4C172.211 43.4 174.104 42.9733 175.678 42.12C177.278 41.24 178.558 39.9333 179.518 38.2L174.998 36.8C174.464 37.68 173.784 38.3467 172.958 38.8C172.158 39.2267 171.184 39.44 170.038 39.44C169.024 39.44 168.158 39.2133 167.438 38.76C166.718 38.3067 166.171 37.6533 165.798 36.8C165.451 35.9467 165.278 34.9067 165.278 33.68C165.304 32.4 165.491 31.3333 165.838 30.48C166.211 29.6 166.731 28.9467 167.398 28.52C168.091 28.0667 168.944 27.84 169.958 27.84C170.784 27.84 171.504 28.0267 172.118 28.4C172.731 28.7733 173.198 29.28 173.518 29.92C173.864 30.56 174.038 31.3333 174.038 32.24C174.038 32.4267 173.984 32.6667 173.878 32.96C173.798 33.2267 173.704 33.44 173.598 33.6L174.998 31.76H163.038V34.96H179.518C179.544 34.8 179.558 34.5867 179.558 34.32C179.584 34.0533 179.598 33.8 179.598 33.56C179.598 31.5867 179.224 29.9067 178.478 28.52C177.731 27.1067 176.638 26.04 175.198 25.32C173.784 24.5733 172.064 24.2 170.038 24.2C168.011 24.2 166.251 24.6 164.758 25.4C163.264 26.1733 162.104 27.28 161.278 28.72C160.478 30.1333 160.078 31.8267 160.078 33.8C160.078 35.7467 160.478 37.44 161.278 38.88C162.104 40.2933 163.264 41.4 164.758 42.2C166.251 43 167.998 43.4 169.998 43.4ZM187.185 37.28C187.185 36.7467 187.305 36.3067 187.545 35.96C187.785 35.5867 188.159 35.3067 188.665 35.12C189.172 34.9067 189.825 34.8 190.625 34.8C191.612 34.8 192.545 34.9333 193.425 35.2C194.332 35.4667 195.145 35.8667 195.865 36.4V34C195.599 33.68 195.159 33.3467 194.545 33C193.932 32.6533 193.172 32.36 192.265 32.12C191.385 31.88 190.359 31.76 189.185 31.76C186.892 31.76 185.119 32.28 183.865 33.32C182.612 34.36 181.985 35.7733 181.985 37.56C181.985 38.8133 182.279 39.88 182.865 40.76C183.479 41.6133 184.279 42.2667 185.265 42.72C186.252 43.1733 187.319 43.4 188.465 43.4C189.585 43.4 190.652 43.2 191.665 42.8C192.705 42.4 193.545 41.8 194.185 41C194.852 40.2 195.185 39.2133 195.185 38.04L194.545 35.64C194.545 36.52 194.345 37.28 193.945 37.92C193.545 38.5333 193.025 39.0133 192.385 39.36C191.745 39.68 191.025 39.84 190.225 39.84C189.665 39.84 189.145 39.7467 188.665 39.56C188.212 39.3467 187.852 39.0533 187.585 38.68C187.319 38.28 187.185 37.8133 187.185 37.28ZM185.185 29.8C185.452 29.6133 185.865 29.3867 186.425 29.12C186.985 28.8533 187.652 28.6267 188.425 28.44C189.199 28.2533 190.012 28.16 190.865 28.16C191.425 28.16 191.932 28.2133 192.385 28.32C192.839 28.4267 193.225 28.6 193.545 28.84C193.892 29.08 194.145 29.3867 194.305 29.76C194.465 30.1067 194.545 30.5333 194.545 31.04V43H199.545V29.96C199.545 28.7067 199.199 27.6533 198.505 26.8C197.812 25.92 196.852 25.2533 195.625 24.8C194.399 24.3467 192.999 24.12 191.425 24.12C189.719 24.12 188.172 24.36 186.785 24.84C185.399 25.2933 184.225 25.7733 183.265 26.28L185.185 29.8ZM231.565 31.24C231.565 29.7467 231.351 28.48 230.925 27.44C230.525 26.3733 229.898 25.5733 229.045 25.04C228.191 24.48 227.085 24.2 225.725 24.2C224.471 24.2 223.351 24.4667 222.365 25C221.405 25.5333 220.591 26.32 219.925 27.36C219.525 26.32 218.885 25.5333 218.005 25C217.125 24.4667 216.005 24.2 214.645 24.2C213.418 24.2 212.365 24.4667 211.485 25C210.605 25.5333 209.898 26.3067 209.365 27.32V24.6H204.365V43H209.365V31.8C209.365 31 209.498 30.32 209.765 29.76C210.031 29.1733 210.405 28.7467 210.885 28.48C211.365 28.1867 211.925 28.04 212.565 28.04C213.525 28.04 214.218 28.36 214.645 29C215.071 29.6133 215.285 30.5467 215.285 31.8V43H220.445V31.8C220.445 31 220.578 30.32 220.845 29.76C221.111 29.1733 221.485 28.7467 221.965 28.48C222.445 28.1867 223.005 28.04 223.645 28.04C224.605 28.04 225.298 28.36 225.725 29C226.151 29.6133 226.365 30.5467 226.365 31.8V43H231.565V31.24Z" fill="black"/>
<path d="M123.361 22.3134C122.454 22.2195 122.029 22.135 121.595 22.135C115.883 22.1256 110.171 22.1162 104.458 22.1444C101.72 22.1538 99.8698 23.7123 99.8037 25.9467C99.7471 28.2281 101.465 29.8617 104.251 29.9838C106.498 30.087 108.745 29.9838 110.992 30.0401C115.392 30.1434 118.602 33.1195 118.621 37.0533C118.64 41.0058 115.477 44.0101 111.039 44.0665C105.459 44.1416 99.8698 44.0946 94.2898 44.0946C93.5911 44.0946 92.9019 44.0946 91.6367 44.0946C92.5714 45.1274 93.1662 45.8033 93.7894 46.4512C95.6022 48.3382 95.6022 48.3288 93.4117 50C90.9191 47.4839 88.4171 44.9772 86 42.5362C88.3793 40.1045 90.8719 37.5697 93.7044 34.6874C94.2898 35.354 94.894 36.0393 95.5927 36.8373C94.3275 38.1705 93.2134 39.3535 91.8633 40.7711C92.7225 40.8556 93.204 40.9495 93.6761 40.9495C99.3222 40.9589 104.978 40.9589 110.624 40.9495C111.068 40.9495 111.53 40.9401 111.965 40.8744C113.985 40.5646 115.411 39.0155 115.439 37.1284C115.467 35.2038 113.947 33.4763 111.88 33.2603C110.482 33.1195 109.057 33.1946 107.65 33.1665C106.177 33.1383 104.685 33.2134 103.231 33.0256C99.1239 32.5093 96.4802 29.4956 96.6502 25.6651C96.8107 21.9754 99.9642 19.065 104.015 19.018C109.595 18.9523 115.184 18.9992 120.764 18.9899C121.453 18.9899 122.152 18.9899 123.389 18.9899C122.53 17.9853 122.001 17.3281 121.416 16.7178C119.565 14.7838 119.565 14.7087 122.124 13C124.343 15.2157 126.637 17.4408 128.808 19.7691C129.101 20.0789 129.045 21.1586 128.733 21.4966C126.571 23.8437 124.295 26.0875 122.114 28.322C119.499 26.8011 119.442 26.4631 121.227 24.6042C121.841 23.9564 122.435 23.2992 123.361 22.3134Z" fill="#3EC9D9"/>
</svg>
