<svg width="34" height="40" viewBox="0 0 34 40" fill="none" xmlns="http://www.w3.org/2000/svg">
<path d="M0 15.7759C0.0246734 15.7113 0.0575714 15.6468 0.0575714 15.5742C0.139816 14.727 0.501693 14.009 1.10208 13.3958C1.78471 12.6939 2.63183 12.2824 3.60232 12.0887C3.95597 12.0242 4.30963 12 4.6715 12C12.9042 12 21.1369 12 29.3778 12C30.3401 12 31.2366 12.2098 32.059 12.7019C32.9226 13.2183 33.5312 13.9363 33.8437 14.8884C33.9589 15.2434 34 15.6145 34 15.9856C34 16.8167 34 17.6557 34 18.4868C34 21.7059 34 24.9251 34 28.1443C34 28.6203 33.9342 29.0721 33.7533 29.5159C33.3832 30.4195 32.7417 31.0811 31.8863 31.549C31.3106 31.8637 30.6938 32.0573 30.0358 32.1138C29.7973 32.138 29.5506 32.1461 29.3038 32.1461C24.4925 32.1461 19.6894 32.1461 14.8781 32.1461C14.7054 32.1461 14.5656 32.1945 14.4257 32.2994C11.1195 34.7682 7.80503 37.229 4.49879 39.6978C4.41655 39.7543 4.34253 39.8188 4.26028 39.8673C3.78326 40.1658 3.14998 39.9399 2.99371 39.3993C2.94436 39.2218 2.96081 39.0443 3.01016 38.8749C3.24867 38.1165 3.48718 37.35 3.73391 36.5916C4.17804 35.1716 4.63038 33.7597 5.0745 32.3397C5.09095 32.2913 5.09918 32.2429 5.12385 32.1703C5.06628 32.1622 5.00871 32.1461 4.95936 32.1461C4.76197 32.1461 4.56459 32.1541 4.3672 32.138C3.06773 32.0735 1.94098 31.6136 1.04451 30.6696C0.526367 30.121 0.213836 29.4755 0.0904693 28.7333C0.0740203 28.6122 0.0411224 28.4831 0.016449 28.3621C0 24.1748 0 19.9794 0 15.7759ZM5.39526 36.8821C5.40348 36.8901 5.41993 36.8982 5.42816 36.9063C5.4775 36.874 5.52685 36.8417 5.5762 36.8014C7.0566 35.7041 8.52879 34.5988 10.0092 33.5015C11.2593 32.5737 12.5012 31.6458 13.7513 30.718C13.9405 30.5728 14.1461 30.4921 14.3846 30.5082C14.4504 30.5082 14.508 30.5082 14.5738 30.5082C19.4756 30.5082 24.3774 30.5082 29.2791 30.5082C29.5341 30.5082 29.7973 30.4921 30.0522 30.4518C30.6197 30.363 31.1297 30.1371 31.5656 29.7579C32.0426 29.3384 32.314 28.8301 32.314 28.1927C32.314 24.1183 32.314 20.0358 32.314 15.9614C32.314 15.5016 32.1742 15.0901 31.8863 14.727C31.5573 14.2994 31.1214 14.0251 30.6115 13.8395C30.1838 13.6862 29.7397 13.6378 29.2874 13.6378C21.1863 13.6378 13.0934 13.6378 4.99226 13.6378C4.77842 13.6378 4.56459 13.6459 4.35897 13.654C3.80793 13.6782 3.29802 13.8315 2.83745 14.13C2.12192 14.5899 1.72714 15.2111 1.73537 16.0825C1.75181 18.7853 1.74359 21.4881 1.74359 24.199C1.74359 25.5383 1.74359 26.8695 1.74359 28.2088C1.74359 28.6849 1.89985 29.0963 2.19594 29.4594C2.45912 29.7902 2.79632 30.0322 3.18287 30.2017C3.64344 30.4114 4.12869 30.5002 4.63038 30.5002C5.18142 30.5002 5.74069 30.5002 6.29173 30.5002C6.71118 30.5002 7.0566 30.831 7.10595 31.2021C7.13062 31.3635 7.09773 31.5087 7.04838 31.6539C6.51379 33.3402 5.98742 35.0264 5.45283 36.7207C5.42816 36.7772 5.41171 36.8336 5.39526 36.8821Z" fill="#256F7C"/>
<path d="M8.85128 25.5765L3.69016 20.4037L9.4114 14.5967L11.2918 16.7273L9.24136 18.8776C9.28137 18.8776 9.33138 18.8776 9.37139 18.8776C10.9417 18.8776 12.5121 18.8776 14.0824 18.8776C16.1829 18.8776 18.2833 18.8776 20.3838 18.8776C20.6338 18.8776 20.9239 18.8776 21.184 18.838C22.2442 18.6794 23.0044 17.8768 23.0144 16.8957C23.0244 15.885 22.2142 15.003 21.1439 14.894C20.6638 14.8445 20.1837 14.8346 19.7236 14.8346C19.6036 14.8346 19.4836 14.8346 19.3536 14.8346C19.2335 14.8346 19.1035 14.8346 18.9835 14.8346C18.8034 14.8346 18.6134 14.8346 18.4334 14.8246C18.1533 14.8147 17.8732 14.8147 17.5932 14.8147C16.913 14.8147 16.2029 14.8147 15.5027 14.7255C12.6021 14.3688 10.6617 12.1986 10.7917 9.44377C10.9117 6.74838 13.1822 4.69711 16.0728 4.66738C17.4531 4.64756 18.9735 4.64756 20.8439 4.64756C21.7941 4.64756 22.7543 4.64756 23.7045 4.64756C24.6547 4.64756 25.6149 4.64756 26.5651 4.64756H27.5954C27.3953 4.40974 27.2153 4.20164 27.0352 4.01335C26.3851 3.3296 25.995 2.92331 26.055 2.38819C26.115 1.82335 26.6351 1.47652 27.5853 0.852217L27.9254 0.624298L28.2155 0.911674C28.5556 1.2486 28.9056 1.59543 29.2457 1.93235C30.3459 3.0224 31.4862 4.14218 32.5664 5.30159C32.9565 5.71779 32.8765 6.70874 32.5264 7.08531C31.4562 8.24472 30.3359 9.3744 29.2557 10.4645C28.9056 10.8113 28.5556 11.168 28.2155 11.5149L27.9454 11.7923L27.6054 11.5941C26.6852 11.059 26.075 10.6626 25.995 10.0681C25.915 9.50323 26.3251 9.02757 26.9152 8.41318C27.1353 8.17535 27.3553 7.94743 27.6254 7.66006C27.5853 7.66006 27.5553 7.66006 27.5153 7.66006H25.845C24.3046 7.66006 22.7743 7.66006 21.234 7.66006C19.3836 7.66006 17.8432 7.66006 16.3729 7.66997C14.8726 7.67988 13.8824 8.45282 13.8524 9.65187C13.8224 10.8608 14.7626 11.6932 16.2629 11.7527C16.873 11.7824 17.4832 11.7824 17.9433 11.7824C18.2033 11.7824 18.4534 11.7824 18.7134 11.7824C18.9735 11.7824 19.2335 11.7824 19.4936 11.7824C19.9337 11.7824 20.3038 11.7824 20.6338 11.7923C23.7745 11.8716 26.065 13.9823 26.075 16.8264C26.085 18.2137 25.5349 19.4821 24.5347 20.4037C23.5445 21.3253 22.1642 21.8406 20.6538 21.8604C19.2935 21.8802 17.7932 21.8901 15.9528 21.8901C14.9826 21.8901 14.0024 21.8901 13.0322 21.8901C12.062 21.8901 11.0918 21.8901 10.1116 21.8901H9.15134C9.38139 22.1478 9.58144 22.3658 9.79148 22.5838L9.80148 22.5937C10.4616 23.2775 10.8217 23.654 10.7817 24.1594C10.7417 24.6747 10.3216 24.9918 9.48141 25.6161L9.13134 25.8837L8.85128 25.5765Z" fill="#3EC9D9"/>
<path d="M27.8654 1.27833C29.3057 2.71521 30.796 4.15209 32.2063 5.65834C32.3964 5.85653 32.3664 6.5601 32.1563 6.77811C30.756 8.29427 29.2757 9.75097 27.8554 11.1978C26.155 10.2068 26.115 9.99871 27.2753 8.78975C27.6754 8.37355 28.0654 7.95735 28.6556 7.31323C28.0654 7.25377 27.7854 7.19431 27.5153 7.19431C25.4249 7.19431 23.3344 7.1844 21.234 7.1844C19.6136 7.1844 17.9933 7.1844 16.3729 7.19431C14.5925 7.20422 13.3923 8.21499 13.3523 9.66178C13.3122 11.1383 14.4325 12.1986 16.2429 12.2779C16.813 12.3076 17.3831 12.3076 17.9432 12.3076C18.4534 12.3076 18.9735 12.3076 19.4836 12.3076C19.8637 12.3076 20.2337 12.3076 20.6138 12.3175C23.4745 12.3869 25.5549 14.3094 25.5749 16.8561C25.5849 19.4128 23.5345 21.355 20.6438 21.3947C19.0835 21.4145 17.5132 21.4244 15.9528 21.4244C14.0024 21.4244 12.062 21.4145 10.1115 21.4145C9.99152 21.4145 9.87149 21.4145 9.75147 21.4145C9.59143 21.4145 9.4214 21.4145 9.24136 21.4145C8.92129 21.4145 8.55121 21.4145 8.03109 21.4145C8.64122 22.0784 9.02131 22.5243 9.4314 22.9405C10.6117 24.1594 10.6117 24.1594 9.18134 25.2396C7.56099 23.6144 5.94064 21.9892 4.3703 20.4136C5.92063 18.838 7.54099 17.2029 9.37138 15.33C9.75147 15.7561 10.1416 16.2021 10.6017 16.7174C9.78147 17.5795 9.05131 18.3425 8.18113 19.2641C8.74125 19.3236 9.05131 19.383 9.36138 19.383C10.9317 19.383 12.5021 19.383 14.0724 19.383C16.1729 19.383 18.2733 19.383 20.3738 19.383C20.6638 19.383 20.9639 19.3731 21.244 19.3335C22.5543 19.1353 23.4845 18.1245 23.5045 16.9056C23.5245 15.657 22.5342 14.5373 21.194 14.3985C20.7038 14.349 20.2137 14.3391 19.7236 14.3391C19.4736 14.3391 19.2335 14.3391 18.9835 14.3391C18.8034 14.3391 18.6234 14.3391 18.4434 14.3292C17.4831 14.3094 16.5129 14.3589 15.5727 14.24C12.9022 13.9031 11.1818 11.9509 11.2918 9.4735C11.4018 7.08531 13.4423 5.2025 16.0728 5.16286C17.6632 5.14304 19.2535 5.14304 20.8339 5.14304C22.7443 5.14304 24.6547 5.15295 26.5551 5.15295C26.6851 5.15295 26.8152 5.15295 26.9552 5.15295C27.1152 5.15295 27.2853 5.15295 27.4553 5.15295C27.7754 5.15295 28.1455 5.15295 28.6556 5.15295C28.0955 4.50883 27.7554 4.07281 27.3753 3.68634C26.205 2.43774 26.205 2.38819 27.8654 1.27833ZM27.9954 0L27.3153 0.455838C26.3151 1.11978 25.6549 1.5657 25.5649 2.34856C25.4849 3.04222 25.895 3.5377 26.4951 4.17191C25.5749 4.17191 24.6547 4.17191 23.7345 4.17191C22.7843 4.17191 21.8241 4.17191 20.8739 4.17191C18.9935 4.17191 17.4831 4.18182 16.0928 4.19173C14.5825 4.21155 13.1622 4.75657 12.092 5.71779C11.0117 6.69884 10.3916 8.0168 10.3216 9.44377C10.1916 12.4563 12.302 14.8445 15.4727 15.2309C16.2029 15.3201 16.923 15.3201 17.6232 15.3201C17.9132 15.3201 18.1733 15.3201 18.4534 15.33C18.6234 15.33 18.8034 15.3399 19.0135 15.3399C19.1335 15.3399 19.2635 15.3399 19.3836 15.3399C19.5036 15.3399 19.6236 15.3399 19.7536 15.3399C20.1937 15.3399 20.6638 15.3498 21.1139 15.3895C21.9241 15.4688 22.5442 16.1327 22.5342 16.8957C22.5242 17.629 21.9441 18.2335 21.1239 18.3623C20.8939 18.3921 20.6338 18.402 20.4038 18.402C17.8832 18.402 15.9428 18.402 14.1024 18.402C12.8021 18.402 11.5819 18.402 10.4216 18.402L10.4716 18.3524L11.3718 17.4011L11.992 16.7471L11.3918 16.0732L10.9117 15.5282L10.1616 14.6859L9.4514 13.8832L8.69124 14.6463L3.69015 19.7299L3 20.4235L3.69015 21.1172L8.5012 25.9431L9.12133 26.5674L9.82148 26.0422C10.7117 25.3684 11.2518 24.9621 11.3118 24.2288C11.3618 23.5549 10.9617 23.0793 10.3216 22.4252C11.2318 22.4252 12.142 22.4252 13.0522 22.4252C14.0224 22.4252 15.0026 22.4252 15.9728 22.4252C17.8132 22.4252 19.3135 22.4153 20.6738 22.3955C22.3142 22.3757 23.8145 21.8109 24.8948 20.8001C25.995 19.7794 26.5951 18.3822 26.5851 16.8561C26.5751 15.3498 25.965 13.9526 24.8548 12.9319C23.7745 11.941 22.2742 11.3662 20.6538 11.3266C20.3138 11.3167 19.9437 11.3167 19.5036 11.3167C19.2435 11.3167 18.9835 11.3167 18.7234 11.3167C18.4634 11.3167 18.2133 11.3167 17.9533 11.3167C17.4932 11.3167 16.893 11.3167 16.2929 11.2869C15.0626 11.2374 14.3325 10.6329 14.3625 9.69151C14.3925 8.59156 15.4327 8.19517 16.3929 8.19517C17.8632 8.18526 19.4036 8.18526 21.254 8.18526C22.7843 8.18526 24.3446 8.18526 25.855 8.18526H26.4851C25.955 8.7402 25.3949 9.3645 25.5049 10.1672C25.6249 11.0491 26.4651 11.5347 27.3553 12.05L28.0354 12.4464L28.5856 11.8914C28.9256 11.5446 29.2757 11.1978 29.6258 10.841C30.716 9.74106 31.8363 8.61137 32.9165 7.45196C33.2666 7.0754 33.3366 6.54028 33.3466 6.26282C33.3666 5.88626 33.3066 5.37096 32.9565 4.9944C31.8663 3.83499 30.726 2.7053 29.6158 1.61525C29.2657 1.27833 28.9256 0.931495 28.5856 0.594571L27.9954 0Z" fill="white"/>
</svg>
