<svg width="89" height="10" viewBox="0 0 89 10" fill="none" xmlns="http://www.w3.org/2000/svg">
<path d="M0 7.56101V3.21408H0.469271V3.71628H0.526901C0.562577 3.6614 0.611974 3.59142 0.675092 3.50635C0.739582 3.4199 0.831516 3.34306 0.950892 3.27583C1.07164 3.20722 1.23492 3.17292 1.44074 3.17292C1.70694 3.17292 1.94158 3.23946 2.14465 3.37256C2.34773 3.50566 2.50621 3.69433 2.6201 3.93857C2.73398 4.18281 2.79093 4.47096 2.79093 4.80302C2.79093 5.13782 2.73398 5.42803 2.6201 5.67364C2.50621 5.91788 2.34841 6.10723 2.14671 6.2417C1.94501 6.3748 1.71243 6.44135 1.44898 6.44135C1.2459 6.44135 1.0833 6.40773 0.961183 6.3405C0.839062 6.27189 0.745071 6.19436 0.679208 6.10792C0.613346 6.0201 0.562577 5.94738 0.526901 5.88975H0.485737V7.56101H0ZM0.477504 4.79478C0.477504 5.03354 0.512493 5.24416 0.582473 5.42665C0.652452 5.60778 0.754676 5.74979 0.889145 5.8527C1.02362 5.95424 1.18827 6.00501 1.38312 6.00501C1.58619 6.00501 1.75565 5.9515 1.89149 5.84447C2.02871 5.73607 2.13162 5.59062 2.20022 5.40813C2.2702 5.22426 2.30519 5.01981 2.30519 4.79478C2.30519 4.5725 2.27089 4.37216 2.20228 4.19379C2.13505 4.01404 2.03282 3.87202 1.89561 3.76774C1.75977 3.66208 1.58894 3.60926 1.38312 3.60926C1.18553 3.60926 1.0195 3.65934 0.885029 3.75951C0.75056 3.8583 0.649021 3.99689 0.580414 4.17526C0.511808 4.35227 0.477504 4.55878 0.477504 4.79478Z" fill="white"/>
<path d="M4.81621 6.44135C4.5308 6.44135 4.28038 6.37343 4.06496 6.23759C3.85091 6.10174 3.6835 5.9117 3.56276 5.66746C3.44338 5.42322 3.38369 5.13782 3.38369 4.81125C3.38369 4.48194 3.44338 4.19447 3.56276 3.94886C3.6835 3.70325 3.85091 3.51252 4.06496 3.37668C4.28038 3.24084 4.5308 3.17292 4.81621 3.17292C5.10161 3.17292 5.35134 3.24084 5.56539 3.37668C5.78082 3.51252 5.94822 3.70325 6.06759 3.94886C6.18834 4.19447 6.24872 4.48194 6.24872 4.81125C6.24872 5.13782 6.18834 5.42322 6.06759 5.66746C5.94822 5.9117 5.78082 6.10174 5.56539 6.23759C5.35134 6.37343 5.10161 6.44135 4.81621 6.44135ZM4.81621 6.00501C5.033 6.00501 5.21138 5.94944 5.35134 5.83829C5.4913 5.72715 5.59489 5.58102 5.66213 5.3999C5.72936 5.21877 5.76298 5.02256 5.76298 4.81125C5.76298 4.59994 5.72936 4.40304 5.66213 4.22054C5.59489 4.03805 5.4913 3.89054 5.35134 3.77803C5.21138 3.66551 5.033 3.60926 4.81621 3.60926C4.59941 3.60926 4.42103 3.66551 4.28107 3.77803C4.14111 3.89054 4.03752 4.03805 3.97028 4.22054C3.90305 4.40304 3.86943 4.59994 3.86943 4.81125C3.86943 5.02256 3.90305 5.21877 3.97028 5.3999C4.03752 5.58102 4.14111 5.72715 4.28107 5.83829C4.42103 5.94944 4.59941 6.00501 4.81621 6.00501Z" fill="white"/>
<path d="M7.5989 6.37549L6.63566 3.21408H7.1461L7.82942 5.63453H7.86235L8.53744 3.21408H9.05611L9.72297 5.6263H9.7559L10.4392 3.21408H10.9497L9.98642 6.37549H9.50892L8.81736 3.9468H8.76796L8.0764 6.37549H7.5989Z" fill="white"/>
<path d="M12.8098 6.44135C12.5052 6.44135 12.2424 6.37411 12.0215 6.23964C11.8019 6.1038 11.6325 5.91445 11.5131 5.67158C11.3951 5.42734 11.3361 5.14331 11.3361 4.81948C11.3361 4.49566 11.3951 4.21025 11.5131 3.96327C11.6325 3.71491 11.7985 3.52144 12.0112 3.38285C12.2252 3.2429 12.475 3.17292 12.7604 3.17292C12.925 3.17292 13.0876 3.20036 13.2482 3.25524C13.4087 3.31013 13.5548 3.39932 13.6866 3.52281C13.8183 3.64493 13.9233 3.80684 14.0015 4.00855C14.0797 4.21025 14.1188 4.45861 14.1188 4.75362V4.95944H11.6819V4.53957H13.6248C13.6248 4.36119 13.5891 4.20202 13.5178 4.06206C13.4478 3.9221 13.3476 3.81165 13.2173 3.73069C13.0883 3.64973 12.936 3.60926 12.7604 3.60926C12.5669 3.60926 12.3995 3.65728 12.2582 3.75333C12.1182 3.84801 12.0105 3.9715 11.935 4.12381C11.8596 4.27612 11.8218 4.4394 11.8218 4.61366V4.89358C11.8218 5.13233 11.863 5.33472 11.9453 5.50075C12.029 5.66541 12.145 5.79096 12.2932 5.8774C12.4413 5.96247 12.6136 6.00501 12.8098 6.00501C12.9374 6.00501 13.0526 5.98717 13.1555 5.9515C13.2598 5.91445 13.3497 5.85956 13.4252 5.78684C13.5006 5.71274 13.559 5.62081 13.6001 5.51104L14.0694 5.64276C14.02 5.80193 13.937 5.94189 13.8203 6.06264C13.7037 6.18201 13.5596 6.27532 13.3881 6.34256C13.2166 6.40842 13.0238 6.44135 12.8098 6.44135Z" fill="white"/>
<path d="M14.8577 6.37549V3.21408H15.327V3.69158H15.3599C15.4175 3.53516 15.5218 3.40824 15.6727 3.31082C15.8237 3.21339 15.9938 3.16468 16.1832 3.16468C16.2188 3.16468 16.2634 3.16537 16.3169 3.16674C16.3705 3.16811 16.4109 3.17017 16.4384 3.17292V3.66689C16.4219 3.66277 16.3842 3.65659 16.3252 3.64836C16.2676 3.63876 16.2065 3.63395 16.142 3.63395C15.9883 3.63395 15.8511 3.6662 15.7304 3.73069C15.611 3.79381 15.5163 3.88163 15.4463 3.99414C15.3777 4.10528 15.3434 4.23221 15.3434 4.37491V6.37549H14.8577Z" fill="white"/>
<path d="M18.2434 6.44135C17.9388 6.44135 17.6761 6.37411 17.4551 6.23964C17.2356 6.1038 17.0661 5.91445 16.9468 5.67158C16.8288 5.42734 16.7698 5.14331 16.7698 4.81948C16.7698 4.49566 16.8288 4.21025 16.9468 3.96327C17.0661 3.71491 17.2322 3.52144 17.4448 3.38285C17.6589 3.2429 17.9086 3.17292 18.194 3.17292C18.3587 3.17292 18.5213 3.20036 18.6818 3.25524C18.8424 3.31013 18.9885 3.39932 19.1202 3.52281C19.252 3.64493 19.3569 3.80684 19.4351 4.00855C19.5133 4.21025 19.5525 4.45861 19.5525 4.75362V4.95944H17.1155V4.53957H19.0585C19.0585 4.36119 19.0228 4.20202 18.9515 4.06206C18.8815 3.9221 18.7813 3.81165 18.651 3.73069C18.522 3.64973 18.3697 3.60926 18.194 3.60926C18.0006 3.60926 17.8332 3.65728 17.6918 3.75333C17.5519 3.84801 17.4442 3.9715 17.3687 4.12381C17.2932 4.27612 17.2555 4.4394 17.2555 4.61366V4.89358C17.2555 5.13233 17.2967 5.33472 17.379 5.50075C17.4627 5.66541 17.5786 5.79096 17.7268 5.8774C17.875 5.96247 18.0472 6.00501 18.2434 6.00501C18.371 6.00501 18.4863 5.98717 18.5892 5.9515C18.6935 5.91445 18.7834 5.85956 18.8588 5.78684C18.9343 5.71274 18.9926 5.62081 19.0338 5.51104L19.5031 5.64276C19.4537 5.80193 19.3706 5.94189 19.254 6.06264C19.1374 6.18201 18.9933 6.27532 18.8218 6.34256C18.6503 6.40842 18.4575 6.44135 18.2434 6.44135Z" fill="white"/>
<path d="M21.4851 6.44135C21.2217 6.44135 20.9891 6.3748 20.7874 6.2417C20.5857 6.10723 20.4279 5.91788 20.314 5.67364C20.2001 5.42803 20.1432 5.13782 20.1432 4.80302C20.1432 4.47096 20.2001 4.18281 20.314 3.93857C20.4279 3.69433 20.5864 3.50566 20.7894 3.37256C20.9925 3.23946 21.2271 3.17292 21.4933 3.17292C21.6992 3.17292 21.8618 3.20722 21.9811 3.27583C22.1019 3.34306 22.1938 3.4199 22.2569 3.50635C22.3214 3.59142 22.3715 3.6614 22.4072 3.71628H22.4484V2.16028H22.9341V6.37549H22.4648V5.88975H22.4072C22.3715 5.94738 22.3207 6.0201 22.2549 6.10792C22.189 6.19436 22.095 6.27189 21.9729 6.3405C21.8508 6.40773 21.6882 6.44135 21.4851 6.44135ZM21.551 6.00501C21.7458 6.00501 21.9105 5.95424 22.0449 5.8527C22.1794 5.74979 22.2816 5.60778 22.3516 5.42665C22.4216 5.24416 22.4566 5.03354 22.4566 4.79478C22.4566 4.55878 22.4223 4.35227 22.3537 4.17526C22.2851 3.99689 22.1835 3.8583 22.0491 3.75951C21.9146 3.65934 21.7486 3.60926 21.551 3.60926C21.3452 3.60926 21.1736 3.66208 21.0364 3.76774C20.9006 3.87202 20.7984 4.01404 20.7297 4.19379C20.6625 4.37216 20.6289 4.5725 20.6289 4.79478C20.6289 5.01981 20.6632 5.22426 20.7318 5.40813C20.8018 5.59062 20.9047 5.73607 21.0405 5.84447C21.1777 5.9515 21.3479 6.00501 21.551 6.00501Z" fill="white"/>
<path d="M25.5871 6.37549V2.16028H26.0729V3.71628H26.114C26.1497 3.6614 26.1991 3.59142 26.2622 3.50635C26.3267 3.4199 26.4186 3.34306 26.538 3.27583C26.6588 3.20722 26.822 3.17292 27.0279 3.17292C27.2941 3.17292 27.5287 3.23946 27.7318 3.37256C27.9348 3.50566 28.0933 3.69433 28.2072 3.93857C28.3211 4.18281 28.378 4.47096 28.378 4.80302C28.378 5.13782 28.3211 5.42803 28.2072 5.67364C28.0933 5.91788 27.9355 6.10723 27.7338 6.2417C27.5321 6.3748 27.2995 6.44135 27.0361 6.44135C26.833 6.44135 26.6704 6.40773 26.5483 6.3405C26.4262 6.27189 26.3322 6.19436 26.2663 6.10792C26.2005 6.0201 26.1497 5.94738 26.114 5.88975H26.0564V6.37549H25.5871ZM26.0646 4.79478C26.0646 5.03354 26.0996 5.24416 26.1696 5.42665C26.2396 5.60778 26.3418 5.74979 26.4763 5.8527C26.6107 5.95424 26.7754 6.00501 26.9702 6.00501C27.1733 6.00501 27.3428 5.9515 27.4786 5.84447C27.6158 5.73607 27.7187 5.59062 27.7873 5.40813C27.8573 5.22426 27.8923 5.01981 27.8923 4.79478C27.8923 4.5725 27.858 4.37216 27.7894 4.19379C27.7222 4.01404 27.6199 3.87202 27.4827 3.76774C27.3469 3.66208 27.1761 3.60926 26.9702 3.60926C26.7726 3.60926 26.6066 3.65934 26.4721 3.75951C26.3377 3.8583 26.2361 3.99689 26.1675 4.17526C26.0989 4.35227 26.0646 4.55878 26.0646 4.79478Z" fill="white"/>
<path d="M29.3207 7.56101C29.2384 7.56101 29.165 7.55415 29.1005 7.54043C29.036 7.52808 28.9914 7.51573 28.9667 7.50338L29.0902 7.07528C29.2082 7.10546 29.3125 7.11644 29.403 7.10821C29.4936 7.09998 29.5739 7.0595 29.6438 6.98677C29.7152 6.91542 29.7804 6.79948 29.8394 6.63894L29.9299 6.39195L28.7609 3.21408H29.2878L30.1604 5.73333H30.1934L31.0661 3.21408H31.593L30.251 6.83652C30.1906 6.99981 30.1159 7.13496 30.0267 7.24199C29.9375 7.35039 29.8339 7.43066 29.7159 7.4828C29.5992 7.53494 29.4675 7.56101 29.3207 7.56101Z" fill="white"/>
<path d="M38.0254 3.84436C38.0254 3.42715 38.1171 3.06655 38.3006 2.76258C38.49 2.4586 38.7356 2.22615 39.0375 2.06523C39.3394 1.89834 39.6679 1.8149 40.023 1.8149C40.319 1.8149 40.5824 1.85364 40.8132 1.93112C41.0441 2.00861 41.2512 2.11291 41.4347 2.24404C41.6242 2.37516 41.7869 2.51821 41.9231 2.67317V1.23377C41.6685 1.03112 41.3903 0.873177 41.0885 0.759932C40.7925 0.646687 40.4167 0.590065 39.9609 0.590065C39.4874 0.590065 39.0464 0.667548 38.638 0.822515C38.2355 0.977481 37.8833 1.20099 37.5814 1.49304C37.2855 1.7851 37.0546 2.13079 36.8889 2.53013C36.7291 2.9235 36.6492 3.36158 36.6492 3.84436C36.6492 4.32714 36.7291 4.7682 36.8889 5.16754C37.0546 5.56092 37.2855 5.90363 37.5814 6.19568C37.8833 6.48774 38.2355 6.71125 38.638 6.86621C39.0464 7.02118 39.4874 7.09866 39.9609 7.09866C40.4167 7.09866 40.7925 7.04204 41.0885 6.92879C41.3903 6.81555 41.6685 6.6576 41.9231 6.45495V5.01555C41.7869 5.17052 41.6242 5.31357 41.4347 5.44469C41.2512 5.57582 41.0441 5.68012 40.8132 5.75761C40.5824 5.83509 40.319 5.87383 40.023 5.87383C39.6679 5.87383 39.3394 5.79337 39.0375 5.63244C38.7356 5.46555 38.49 5.23012 38.3006 4.92615C38.1171 4.61622 38.0254 4.25562 38.0254 3.84436Z" fill="white"/>
<path d="M44.2341 0H43.0798V6.9735H44.2341V0ZM45.7168 4.47019V6.9735H46.871V4.30032C46.871 3.96059 46.8207 3.6745 46.7201 3.44205C46.6195 3.20364 46.4656 3.02483 46.2584 2.90562C46.0512 2.78642 45.7878 2.72682 45.4682 2.72682C45.1486 2.72682 44.8792 2.8043 44.6602 2.95927C44.4412 3.11423 44.2755 3.32284 44.163 3.58509C44.0565 3.84734 44.0032 4.14238 44.0032 4.47019H44.2341C44.2341 4.29734 44.2666 4.14834 44.3317 4.02317C44.3968 3.89801 44.4915 3.80264 44.6158 3.73708C44.7402 3.66556 44.8822 3.62979 45.042 3.62979C45.2847 3.62979 45.4564 3.70132 45.557 3.84436C45.6635 3.98741 45.7168 4.19602 45.7168 4.47019Z" fill="white"/>
<path d="M48.8215 5.69502C48.8215 5.57582 48.8482 5.47747 48.9014 5.39999C48.9547 5.31655 49.0376 5.25396 49.15 5.21224C49.2625 5.16456 49.4075 5.14072 49.5851 5.14072C49.8041 5.14072 50.0113 5.17052 50.2066 5.23012C50.4078 5.28972 50.5884 5.37913 50.7482 5.49833V4.96191C50.689 4.89039 50.5913 4.81588 50.4552 4.7384C50.3191 4.66092 50.1504 4.59536 49.9491 4.54171C49.7538 4.48807 49.5259 4.46125 49.2655 4.46125C48.7564 4.46125 48.3628 4.57747 48.0846 4.80992C47.8064 5.04237 47.6673 5.35827 47.6673 5.75761C47.6673 6.03774 47.7324 6.27615 47.8626 6.47283C47.9988 6.66356 48.1764 6.80959 48.3954 6.91091C48.6144 7.01224 48.8511 7.0629 49.1057 7.0629C49.3543 7.0629 49.591 7.0182 49.8159 6.92879C50.0468 6.83939 50.2332 6.70528 50.3753 6.52648C50.5233 6.34767 50.5973 6.12714 50.5973 5.86489L50.4552 5.32847C50.4552 5.52515 50.4108 5.69502 50.322 5.83807C50.2332 5.97515 50.1178 6.08244 49.9758 6.15992C49.8337 6.23144 49.6739 6.26721 49.4963 6.26721C49.372 6.26721 49.2566 6.24635 49.15 6.20462C49.0494 6.15694 48.9695 6.09138 48.9103 6.00794C48.8511 5.91853 48.8215 5.81423 48.8215 5.69502ZM48.3776 4.02317C48.4368 3.98145 48.5285 3.93079 48.6528 3.87118C48.7771 3.81158 48.9251 3.76092 49.0968 3.7192C49.2684 3.67748 49.449 3.65662 49.6384 3.65662C49.7627 3.65662 49.8751 3.66854 49.9758 3.69238C50.0764 3.71622 50.1622 3.75496 50.2332 3.8086C50.3102 3.86224 50.3664 3.93079 50.4019 4.01423C50.4374 4.09171 50.4552 4.18708 50.4552 4.30032V6.9735H51.565V4.05893C51.565 3.7788 51.4881 3.54337 51.3342 3.35264C51.1803 3.15595 50.9672 3.00695 50.6949 2.90562C50.4226 2.8043 50.1119 2.75364 49.7627 2.75364C49.3838 2.75364 49.0405 2.80728 48.7327 2.91456C48.425 3.01589 48.1645 3.12317 47.9514 3.23642L48.3776 4.02317Z" fill="white"/>
<path d="M52.1109 2.86092V3.83542H54.6324V2.86092H52.1109ZM52.8123 1.43046V6.9735H53.9222V1.43046H52.8123Z" fill="white"/>
<path d="M65.9904 2.86201V3.84455H68.5333V2.86201H65.9904ZM66.6977 1.41974V7.00853H67.8169V1.41974H66.6977Z" fill="white"/>
<path d="M70.2877 2.86201H69.1506V7.00853H70.2877V2.86201ZM71.4965 4.07892L72.0248 3.08736C71.9412 2.97919 71.8308 2.89806 71.6935 2.84398C71.5622 2.78989 71.4219 2.76285 71.2727 2.76285C71.0578 2.76285 70.8488 2.84097 70.6459 2.99722C70.4429 3.14745 70.2788 3.35178 70.1534 3.61018C70.0281 3.86258 69.9654 4.15404 69.9654 4.48456L70.2877 4.80907C70.2877 4.61076 70.3116 4.44249 70.3594 4.30427C70.4131 4.16005 70.4907 4.04887 70.5922 3.97075C70.6936 3.89263 70.816 3.85357 70.9593 3.85357C71.0787 3.85357 71.1771 3.8746 71.2547 3.91666C71.3383 3.95272 71.4189 4.00681 71.4965 4.07892Z" fill="white"/>
<path d="M74.4513 7.09867C74.9467 7.09867 75.3705 7.00252 75.7227 6.81021C76.0809 6.6119 76.3674 6.31744 76.5823 5.92683L75.5705 5.61133C75.4511 5.80964 75.2989 5.95988 75.1139 6.06204C74.9348 6.15819 74.7169 6.20626 74.4602 6.20626C74.2334 6.20626 74.0394 6.15518 73.8782 6.05302C73.7171 5.95086 73.5947 5.80363 73.5111 5.61133C73.4335 5.41903 73.3947 5.18466 73.3947 4.90822C73.4007 4.61977 73.4425 4.37939 73.5201 4.18709C73.6036 3.98878 73.72 3.84155 73.8693 3.74539C74.0245 3.64323 74.2155 3.59215 74.4423 3.59215C74.6274 3.59215 74.7885 3.63422 74.9258 3.71835C75.0631 3.80248 75.1676 3.91666 75.2392 4.06089C75.3168 4.20512 75.3556 4.37939 75.3556 4.58371C75.3556 4.62578 75.3437 4.67986 75.3198 4.74597C75.3019 4.80606 75.281 4.85414 75.2571 4.89019L75.5705 4.47554H72.8933V5.19668H76.5823C76.5883 5.16062 76.5913 5.11254 76.5913 5.05245C76.5972 4.99236 76.6002 4.93527 76.6002 4.88118C76.6002 4.43648 76.5166 4.05789 76.3495 3.74539C76.1824 3.42689 75.9376 3.18652 75.6153 3.02426C75.2989 2.856 74.9139 2.77186 74.4602 2.77186C74.0066 2.77186 73.6126 2.86201 73.2783 3.04229C72.944 3.21656 72.6844 3.46596 72.4993 3.79047C72.3203 4.10897 72.2307 4.49057 72.2307 4.93527C72.2307 5.37396 72.3203 5.75556 72.4993 6.08007C72.6844 6.39857 72.944 6.64796 73.2783 6.82824C73.6126 7.00853 74.0036 7.09867 74.4513 7.09867Z" fill="white"/>
<path d="M78.2986 5.7195C78.2986 5.59931 78.3255 5.50015 78.3792 5.42203C78.433 5.3379 78.5165 5.2748 78.6299 5.23273C78.7434 5.18466 78.8896 5.16062 79.0687 5.16062C79.2895 5.16062 79.4985 5.19067 79.6954 5.25076C79.8984 5.31086 80.0805 5.401 80.2416 5.52119V4.98034C80.1819 4.90822 80.0835 4.83311 79.9462 4.75498C79.8089 4.67686 79.6387 4.61076 79.4358 4.55667C79.2388 4.50259 79.009 4.47554 78.7463 4.47554C78.233 4.47554 77.836 4.59273 77.5555 4.8271C77.2749 5.06146 77.1346 5.37997 77.1346 5.7826C77.1346 6.06504 77.2003 6.30542 77.3316 6.50373C77.4689 6.69603 77.648 6.84327 77.8689 6.94543C78.0897 7.04759 78.3285 7.09867 78.5852 7.09867C78.8359 7.09867 79.0746 7.0536 79.3015 6.96345C79.5343 6.87331 79.7223 6.7381 79.8656 6.55782C80.0148 6.37753 80.0894 6.15518 80.0894 5.89077L79.9462 5.34992C79.9462 5.54823 79.9014 5.7195 79.8118 5.86373C79.7223 6.00194 79.6059 6.11011 79.4626 6.18824C79.3194 6.26035 79.1582 6.29641 78.9791 6.29641C78.8538 6.29641 78.7374 6.27537 78.6299 6.23331C78.5285 6.18523 78.4479 6.11913 78.3882 6.035C78.3285 5.94485 78.2986 5.83969 78.2986 5.7195ZM77.851 4.03385C77.9106 3.99178 78.0032 3.9407 78.1285 3.88061C78.2539 3.82051 78.4031 3.76943 78.5762 3.72737C78.7493 3.6853 78.9314 3.66427 79.1224 3.66427C79.2478 3.66427 79.3612 3.67629 79.4626 3.70032C79.5641 3.72436 79.6507 3.76342 79.7223 3.81751C79.7999 3.87159 79.8566 3.9407 79.8924 4.02483C79.9283 4.10296 79.9462 4.19911 79.9462 4.31329V7.00853H81.0654V4.06991C81.0654 3.78746 80.9878 3.55009 80.8326 3.35779C80.6774 3.15947 80.4625 3.00924 80.1879 2.90708C79.9133 2.80492 79.5999 2.75384 79.2478 2.75384C78.8657 2.75384 78.5195 2.80792 78.2091 2.91609C77.8987 3.01825 77.6361 3.12642 77.4212 3.2406L77.851 4.03385Z" fill="white"/>
<path d="M88.2328 4.35836C88.2328 4.02183 88.1851 3.73638 88.0896 3.50201C88 3.26163 87.8598 3.08135 87.6687 2.96116C87.4777 2.83496 87.23 2.77186 86.9256 2.77186C86.645 2.77186 86.3943 2.83196 86.1734 2.95215C85.9585 3.07234 85.7765 3.24962 85.6273 3.48398C85.5377 3.24962 85.3945 3.07234 85.1975 2.95215C85.0005 2.83196 84.7498 2.77186 84.4453 2.77186C84.1708 2.77186 83.935 2.83196 83.738 2.95215C83.541 3.07234 83.3828 3.24661 83.2634 3.47497V2.86201H82.1442V7.00853H83.2634V4.48456C83.2634 4.30427 83.2933 4.15103 83.353 4.02483C83.4127 3.89263 83.4962 3.79648 83.6037 3.73638C83.7111 3.67028 83.8365 3.63722 83.9797 3.63722C84.1946 3.63722 84.3498 3.70934 84.4453 3.85357C84.5408 3.99178 84.5886 4.20211 84.5886 4.48456V7.00853H85.7437V4.48456C85.7437 4.30427 85.7735 4.15103 85.8332 4.02483C85.8929 3.89263 85.9765 3.79648 86.0839 3.73638C86.1913 3.67028 86.3167 3.63722 86.46 3.63722C86.6749 3.63722 86.8301 3.70934 86.9256 3.85357C87.0211 3.99178 87.0688 4.20211 87.0688 4.48456V7.00853H88.2328V4.35836Z" fill="white"/>
<path d="M63.8026 2.35861C63.6031 2.33483 63.5095 2.31343 63.4139 2.31343C62.1566 2.31105 60.8993 2.30868 59.6419 2.31581C59.0392 2.31819 58.6319 2.71287 58.6174 3.27875C58.6049 3.85651 58.9831 4.27022 59.5962 4.30113C60.0908 4.32728 60.5855 4.30113 61.0801 4.3154C62.0485 4.34155 62.7551 5.09526 62.7593 6.09148C62.7634 7.09247 62.0672 7.85331 61.0905 7.86757C59.8622 7.88659 58.6319 7.87471 57.4037 7.87471C57.2499 7.87471 57.0982 7.87471 56.8197 7.87471C57.0254 8.13624 57.1564 8.30743 57.2935 8.47149C57.6925 8.94939 57.6925 8.94702 57.2104 9.37023C56.6617 8.73303 56.111 8.0982 55.579 7.48002C56.1027 6.86421 56.6513 6.22225 57.2748 5.49232C57.4037 5.66113 57.5367 5.8347 57.6905 6.0368C57.412 6.37442 57.1668 6.674 56.8696 7.03302C57.0587 7.05442 57.1647 7.0782 57.2686 7.0782C58.5114 7.08058 59.7562 7.08058 60.999 7.0782C61.0967 7.0782 61.1985 7.07582 61.2941 7.05918C61.7389 6.98072 62.0527 6.58841 62.0589 6.11051C62.0652 5.62309 61.7306 5.18561 61.2754 5.13092C60.9678 5.09526 60.654 5.11428 60.3444 5.10715C60.0202 5.10001 59.6918 5.11903 59.3718 5.07148C58.4677 4.94071 57.8858 4.17749 57.9232 3.20742C57.9586 2.27301 58.6527 1.53595 59.5443 1.52406C60.7725 1.50742 62.0028 1.5193 63.231 1.51693C63.3828 1.51693 63.5365 1.51693 63.8088 1.51693C63.6197 1.26252 63.5033 1.09609 63.3744 0.941541C62.9671 0.451749 62.9671 0.432728 63.5303 0C64.0187 0.56112 64.5237 1.12462 65.0017 1.71427C65.0661 1.79273 65.0537 2.06616 64.9851 2.15175C64.5092 2.74616 64.0083 3.31441 63.5282 3.88029C62.9526 3.49511 62.9401 3.40952 63.3329 2.93875C63.468 2.77469 63.5989 2.60826 63.8026 2.35861Z" fill="#3EC9D9"/>
</svg>
