<svg width="53" height="52" viewBox="0 0 53 52" fill="none" xmlns="http://www.w3.org/2000/svg">
<path d="M0 18.2593C0.0341074 18.1694 0.0795839 18.0795 0.0795839 17.9783C0.193275 16.7984 0.693517 15.7982 1.52346 14.9441C2.4671 13.9664 3.63812 13.3933 4.97968 13.1236C5.46855 13.0337 5.95743 13 6.45767 13C17.8382 13 29.2187 13 40.6105 13C41.9407 13 43.18 13.2922 44.3169 13.9777C45.5106 14.6969 46.352 15.6971 46.784 17.0231C46.9432 17.5176 47 18.0345 47 18.5514C47 19.7089 47 20.8776 47 22.0351C47 26.519 47 31.0028 47 35.4867C47 36.1497 46.909 36.779 46.6589 37.3971C46.1473 38.6557 45.2605 39.5772 44.0781 40.229C43.2823 40.6673 42.4296 40.937 41.5201 41.0156C41.1904 41.0494 40.8493 41.0606 40.5082 41.0606C33.8573 41.0606 27.2177 41.0606 20.5668 41.0606C20.328 41.0606 20.1347 41.128 19.9415 41.2741C15.3711 44.7129 10.7893 48.1404 6.21892 51.5791C6.10523 51.6578 6.0029 51.7477 5.88921 51.8151C5.2298 52.2309 4.35438 51.9162 4.13837 51.1633C4.07015 50.9161 4.09289 50.6689 4.1611 50.4329C4.49081 49.3765 4.82051 48.3089 5.16159 47.2526C5.77552 45.2747 6.40082 43.3081 7.01476 41.3303C7.03749 41.2629 7.04886 41.1954 7.08297 41.0943C7.00339 41.0831 6.9238 41.0606 6.85559 41.0606C6.58273 41.0606 6.30987 41.0718 6.03701 41.0494C4.24069 40.9595 2.68312 40.3189 1.44388 39.0041C0.727625 38.2399 0.295597 37.3409 0.12506 36.307C0.102322 36.1385 0.0568457 35.9587 0.0227383 35.7901C0 29.9577 0 24.1141 0 18.2593ZM7.45815 47.6571C7.46952 47.6684 7.49226 47.6796 7.50363 47.6909C7.57184 47.6459 7.64006 47.601 7.70827 47.5448C9.75472 46.0164 11.7898 44.4769 13.8362 42.9485C15.5643 41.6562 17.2811 40.3639 19.0092 39.0715C19.2707 38.8692 19.5549 38.7569 19.8846 38.7793C19.9756 38.7793 20.0552 38.7793 20.1461 38.7793C26.9221 38.7793 33.6981 38.7793 40.4741 38.7793C40.8266 38.7793 41.1904 38.7569 41.5428 38.7007C42.3273 38.5771 43.0322 38.2624 43.6347 37.7342C44.2941 37.1499 44.6693 36.4419 44.6693 35.5541C44.6693 29.8791 44.6693 24.1928 44.6693 18.5177C44.6693 17.8772 44.4761 17.304 44.0781 16.7984C43.6234 16.2028 43.0208 15.8207 42.3159 15.5622C41.7247 15.3487 41.1108 15.2813 40.4855 15.2813C29.2869 15.2813 18.0997 15.2813 6.90106 15.2813C6.60547 15.2813 6.30987 15.2925 6.02564 15.3037C5.26391 15.3374 4.55902 15.551 3.92235 15.9668C2.93324 16.6073 2.38752 17.4726 2.39889 18.6863C2.42163 22.4509 2.41026 26.2156 2.41026 29.9914C2.41026 31.8569 2.41026 33.7111 2.41026 35.5766C2.41026 36.2396 2.62627 36.8127 3.03556 37.3184C3.39937 37.7792 3.86551 38.1163 4.39986 38.3523C5.03653 38.6445 5.70731 38.7681 6.40082 38.7681C7.16255 38.7681 7.93566 38.7681 8.69739 38.7681C9.27721 38.7681 9.75472 39.2288 9.82293 39.7458C9.85704 39.9705 9.81156 40.1728 9.74335 40.3751C9.00435 42.7238 8.27673 45.0725 7.53774 47.4324C7.50363 47.5111 7.48089 47.5897 7.45815 47.6571Z" fill="white"/>
<path d="M24.2452 28.9662L18.3982 23.0378L24.8798 16.3826L27.0101 18.8243L24.6872 21.2888C24.7325 21.2888 24.7892 21.2888 24.8345 21.2888C26.6135 21.2888 28.3926 21.2888 30.1716 21.2888C32.5512 21.2888 34.9309 21.2888 37.3105 21.2888C37.5938 21.2888 37.9224 21.2888 38.217 21.2434C39.4181 21.0617 40.2793 20.1417 40.2907 19.0174C40.302 17.859 39.3841 16.8482 38.1717 16.7233C37.6277 16.6665 37.0838 16.6551 36.5626 16.6551C36.4266 16.6551 36.2906 16.6551 36.1433 16.6551C36.0073 16.6551 35.86 16.6551 35.7241 16.6551C35.5201 16.6551 35.3048 16.6551 35.1008 16.6438C34.7835 16.6324 34.4663 16.6324 34.149 16.6324C33.3784 16.6324 32.5739 16.6324 31.7807 16.5302C28.4946 16.1213 26.2962 13.6341 26.4436 10.4769C26.5795 7.38775 29.1518 5.03684 32.4266 5.00277C33.9903 4.98005 35.7127 4.98005 37.8317 4.98005C38.9082 4.98005 39.996 4.98005 41.0725 4.98005C42.149 4.98005 43.2368 4.98005 44.3133 4.98005H45.4805C45.2538 4.70748 45.0499 4.46898 44.8459 4.2532C44.1094 3.46956 43.6674 3.00392 43.7354 2.39064C43.8034 1.74329 44.3927 1.34579 45.4691 0.630292L45.8544 0.36908L46.183 0.698435C46.5683 1.08458 46.9649 1.48207 47.3502 1.86821C48.5966 3.11749 49.8884 4.40084 51.1122 5.72962C51.5542 6.20662 51.4635 7.34232 51.0669 7.77389C49.8544 9.10267 48.5853 10.3974 47.3615 11.6467C46.9649 12.0442 46.5683 12.453 46.183 12.8505L45.8771 13.1685L45.4918 12.9414C44.4493 12.3281 43.7581 11.8738 43.6674 11.1924C43.5768 10.545 44.0414 9.99988 44.7099 9.29574C44.9592 9.02317 45.2085 8.76196 45.5145 8.4326C45.4691 8.4326 45.4352 8.4326 45.3898 8.4326H43.4975C41.7524 8.4326 40.0187 8.4326 38.2736 8.4326C36.1773 8.4326 34.4323 8.4326 32.7665 8.44396C31.0668 8.45532 29.945 9.34117 29.911 10.7154C29.877 12.1009 30.9422 13.0549 32.6419 13.1231C33.3331 13.1571 34.0243 13.1571 34.5456 13.1571C34.8402 13.1571 35.1235 13.1571 35.4181 13.1571C35.7127 13.1571 36.0073 13.1571 36.302 13.1571C36.8006 13.1571 37.2198 13.1571 37.5938 13.1685C41.1518 13.2594 43.7468 15.6784 43.7581 18.9379C43.7694 20.5279 43.1462 21.9816 42.013 23.0378C40.8912 24.094 39.3275 24.6846 37.6164 24.7073C36.0753 24.73 34.3756 24.7414 32.2906 24.7414C31.1915 24.7414 30.081 24.7414 28.9818 24.7414C27.8827 24.7414 26.7835 24.7414 25.673 24.7414H24.5852C24.8458 25.0366 25.0724 25.2865 25.3104 25.5364L25.3217 25.5477C26.0696 26.3314 26.4776 26.7629 26.4322 27.3421C26.3869 27.9327 25.911 28.2961 24.9591 29.0116L24.5625 29.3183L24.2452 28.9662Z" fill="white"/>
<path d="M46.1701 1.46506C47.8018 3.11184 49.4902 4.75861 51.088 6.48489C51.3033 6.71203 51.2693 7.51838 51.0313 7.76824C49.4449 9.50587 47.7679 11.1754 46.1588 12.8335C44.2324 11.6978 44.1871 11.4593 45.5015 10.0737C45.9548 9.59673 46.3967 9.11973 47.0653 8.38152C46.3967 8.31338 46.0795 8.24524 45.7735 8.24524C43.4052 8.24524 41.0369 8.23388 38.6573 8.23388C36.8216 8.23388 34.9859 8.23388 33.1502 8.24524C31.1332 8.25659 29.7734 9.41501 29.7281 11.0731C29.6828 12.7654 30.9519 13.9806 33.0029 14.0714C33.6488 14.1055 34.2947 14.1055 34.9293 14.1055C35.5072 14.1055 36.0964 14.1055 36.6743 14.1055C37.1049 14.1055 37.5242 14.1055 37.9548 14.1168C41.1956 14.1963 43.5525 16.3996 43.5752 19.3184C43.5865 22.2485 41.2636 24.4745 37.9888 24.5199C36.2211 24.5426 34.442 24.554 32.6743 24.554C30.4647 24.554 28.2663 24.5426 26.0567 24.5426C25.9207 24.5426 25.7847 24.5426 25.6488 24.5426C25.4675 24.5426 25.2748 24.5426 25.0709 24.5426C24.7082 24.5426 24.289 24.5426 23.6997 24.5426C24.391 25.3036 24.8216 25.8146 25.2862 26.2916C26.6233 27.6885 26.6233 27.6885 25.0029 28.9265C23.1672 27.0639 21.3315 25.2013 19.5524 23.3956C21.3088 21.5898 23.1445 19.7159 25.2182 17.5694C25.6488 18.0577 26.0907 18.5688 26.6119 19.1594C25.6828 20.1474 24.8556 21.0219 23.8697 22.0782C24.5043 22.1463 24.8556 22.2144 25.2068 22.2144C26.9859 22.2144 28.7649 22.2144 30.544 22.2144C32.9236 22.2144 35.3032 22.2144 37.6828 22.2144C38.0114 22.2144 38.3514 22.2031 38.6687 22.1577C40.1531 21.9305 41.2069 20.7721 41.2296 19.3752C41.2522 17.9442 40.1304 16.6608 38.612 16.5018C38.0568 16.445 37.5015 16.4337 36.9463 16.4337C36.663 16.4337 36.391 16.4337 36.1077 16.4337C35.9038 16.4337 35.6998 16.4337 35.4958 16.4223C34.408 16.3996 33.3089 16.4564 32.2437 16.3201C29.2182 15.934 27.2692 13.6966 27.3938 10.8574C27.5185 8.12031 29.8301 5.96246 32.8103 5.91704C34.612 5.89432 36.4137 5.89432 38.2041 5.89432C40.3684 5.89432 42.5327 5.90568 44.6857 5.90568C44.833 5.90568 44.9803 5.90568 45.1389 5.90568C45.3202 5.90568 45.5129 5.90568 45.7055 5.90568C46.0681 5.90568 46.4874 5.90568 47.0653 5.90568C46.4307 5.16747 46.0455 4.66776 45.6149 4.22483C44.2891 2.79384 44.2891 2.73705 46.1701 1.46506ZM46.3174 0L45.5469 0.522425C44.4137 1.28335 43.6658 1.79442 43.5639 2.69163C43.4732 3.48662 43.9378 4.05448 44.6177 4.78133C43.5752 4.78133 42.5327 4.78133 41.4902 4.78133C40.4137 4.78133 39.3259 4.78133 38.2494 4.78133C36.1191 4.78133 34.408 4.79269 32.8329 4.80404C31.1219 4.82676 29.5128 5.4514 28.3003 6.55303C27.0765 7.67738 26.374 9.18787 26.2947 10.8233C26.1473 14.2758 28.5383 17.0129 32.1304 17.4558C32.9576 17.558 33.7734 17.558 34.5667 17.558C34.8953 17.558 35.1899 17.558 35.5072 17.5694C35.6998 17.5694 35.9038 17.5808 36.1417 17.5808C36.2777 17.5808 36.425 17.5808 36.561 17.5808C36.697 17.5808 36.833 17.5808 36.9803 17.5808C37.4788 17.5808 38.0114 17.5921 38.5213 17.6375C39.4392 17.7284 40.1418 18.4893 40.1304 19.3638C40.1191 20.2042 39.4619 20.897 38.5327 21.0447C38.2721 21.0787 37.9774 21.0901 37.7168 21.0901C34.8613 21.0901 32.663 21.0901 30.578 21.0901C29.1049 21.0901 27.7224 21.0901 26.408 21.0901L26.4646 21.0333L27.4845 19.943L28.187 19.1935L27.5071 18.4212L26.9632 17.7965L26.1134 16.8312L25.3088 15.9113L24.4476 16.7858L18.7819 22.6119L18 23.4069L18.7819 24.2019L24.2323 29.7328L24.9349 30.4483L25.7281 29.8464C26.7366 29.0741 27.3485 28.6085 27.4165 27.768C27.4731 26.9958 27.0199 26.4506 26.2947 25.7011C27.3258 25.7011 28.357 25.7011 29.3882 25.7011C30.4873 25.7011 31.5978 25.7011 32.697 25.7011C34.7819 25.7011 36.4817 25.6897 38.0228 25.667C39.8811 25.6443 41.5809 24.9969 42.8047 23.8385C44.0511 22.6687 44.731 21.0674 44.7197 19.3184C44.7083 17.5921 44.0171 15.9908 42.7593 14.821C41.5355 13.6853 39.8358 13.0266 38.0001 12.9811C37.6148 12.9698 37.1956 12.9698 36.697 12.9698C36.4024 12.9698 36.1077 12.9698 35.8131 12.9698C35.5185 12.9698 35.2352 12.9698 34.9406 12.9698C34.4193 12.9698 33.7395 12.9698 33.0596 12.9357C31.6658 12.8789 30.8386 12.1861 30.8726 11.1072C30.9066 9.84658 32.0851 9.3923 33.1729 9.3923C34.8386 9.38094 36.5837 9.38094 38.68 9.38094C40.4137 9.38094 42.1814 9.38094 43.8925 9.38094H44.6064C44.0058 10.0169 43.3712 10.7324 43.4959 11.6524C43.6319 12.6631 44.5837 13.2196 45.5922 13.8102L46.3627 14.2645L46.986 13.6285C47.3712 13.231 47.7678 12.8335 48.1645 12.4246C49.3996 11.164 50.6687 9.8693 51.8925 8.54052C52.2891 8.10895 52.3684 7.49567 52.3798 7.17767C52.4024 6.7461 52.3344 6.15553 51.9378 5.72397C50.7027 4.39519 49.4109 3.10048 48.1531 1.8512C47.7565 1.46506 47.3712 1.06756 46.986 0.681424L46.3174 0Z" fill="#42C5DE"/>
</svg>
