<svg width="16" height="18" viewBox="0 0 16 18" fill="none" xmlns="http://www.w3.org/2000/svg">
<path d="M0.782593 6.85906C0.79332 6.831 0.807624 6.80294 0.807624 6.77136C0.843382 6.40304 1.00072 6.09084 1.26176 5.82424C1.55855 5.51905 1.92687 5.34015 2.34882 5.25596C2.50258 5.2279 2.65634 5.21738 2.81368 5.21738C6.39312 5.21738 9.97256 5.21738 13.5556 5.21738C13.9739 5.21738 14.3637 5.30858 14.7213 5.52256C15.0968 5.74707 15.3614 6.05927 15.4973 6.4732C15.5473 6.62754 15.5652 6.7889 15.5652 6.95027C15.5652 7.31158 15.5652 7.6764 15.5652 8.03771C15.5652 9.43735 15.5652 10.837 15.5652 12.2366C15.5652 12.4436 15.5366 12.64 15.4579 12.833C15.297 13.2259 15.0181 13.5135 14.6462 13.717C14.3959 13.8538 14.1277 13.938 13.8416 13.9625C13.7379 13.973 13.6307 13.9765 13.5234 13.9765C11.4315 13.9765 9.3432 13.9765 7.25133 13.9765C7.17623 13.9765 7.11544 13.9976 7.05465 14.0432C5.61716 15.1166 4.17608 16.1865 2.73859 17.2599C2.70283 17.2845 2.67065 17.3125 2.63489 17.3336C2.42749 17.4634 2.15215 17.3651 2.08421 17.1301C2.06275 17.0529 2.0699 16.9758 2.09136 16.9021C2.19506 16.5724 2.29876 16.2391 2.40603 15.9094C2.59913 15.292 2.7958 14.6781 2.9889 14.0607C2.99605 14.0397 2.99963 14.0186 3.01035 13.9871C2.98532 13.9836 2.96029 13.9765 2.93884 13.9765C2.85302 13.9765 2.7672 13.98 2.68137 13.973C2.11639 13.945 1.6265 13.745 1.23673 13.3346C1.01145 13.0961 0.875565 12.8154 0.821927 12.4927C0.814776 12.4401 0.800472 12.384 0.789744 12.3313C0.782593 10.5108 0.782593 8.68666 0.782593 6.85906ZM3.12836 16.0357C3.13193 16.0392 3.13909 16.0427 3.14266 16.0462C3.16412 16.0322 3.18557 16.0181 3.20703 16.0006C3.85068 15.5235 4.49076 15.0429 5.13442 14.5659C5.67795 14.1625 6.2179 13.759 6.76143 13.3556C6.84368 13.2925 6.93307 13.2574 7.03677 13.2644C7.06538 13.2644 7.09041 13.2644 7.11902 13.2644C9.25023 13.2644 11.3814 13.2644 13.5127 13.2644C13.6235 13.2644 13.7379 13.2574 13.8488 13.2399C14.0955 13.2013 14.3172 13.1031 14.5067 12.9382C14.7141 12.7558 14.8322 12.5348 14.8322 12.2577C14.8322 10.4862 14.8322 8.71122 14.8322 6.93974C14.8322 6.73979 14.7714 6.56089 14.6462 6.40304C14.5032 6.21712 14.3137 6.09785 14.0919 6.01717C13.906 5.95052 13.7129 5.92947 13.5162 5.92947C9.99401 5.92947 6.47536 5.92947 2.95314 5.92947C2.86017 5.92947 2.7672 5.93298 2.6778 5.93649C2.43822 5.94701 2.21651 6.01366 2.01626 6.14346C1.70516 6.3434 1.53352 6.61351 1.5371 6.99236C1.54425 8.1675 1.54068 9.34264 1.54068 10.5213C1.54068 11.1036 1.54068 11.6824 1.54068 12.2647C1.54068 12.4717 1.60862 12.6506 1.73735 12.8084C1.85178 12.9522 1.99839 13.0575 2.16645 13.1311C2.3667 13.2223 2.57768 13.2609 2.7958 13.2609C3.03539 13.2609 3.27854 13.2609 3.51813 13.2609C3.7005 13.2609 3.85068 13.4048 3.87214 13.5661C3.88286 13.6363 3.86856 13.6994 3.84711 13.7626C3.61467 14.4957 3.38582 15.2288 3.15339 15.9655C3.14266 15.9901 3.13551 16.0146 3.12836 16.0357Z" fill="white"/>
<path d="M4.63093 11.1202L2.38696 8.87116L4.87446 6.34639L5.69203 7.27272L4.80053 8.20766C4.81793 8.20766 4.83967 8.20766 4.85707 8.20766C5.53982 8.20766 6.22258 8.20766 6.90534 8.20766C7.81858 8.20766 8.73182 8.20766 9.64506 8.20766C9.75378 8.20766 9.8799 8.20766 9.99296 8.19042C10.4539 8.12149 10.7844 7.7725 10.7888 7.34596C10.7931 6.90649 10.4409 6.52304 9.97557 6.47565C9.76683 6.4541 9.55809 6.44979 9.35804 6.44979C9.30586 6.44979 9.25367 6.44979 9.19714 6.44979C9.14495 6.44979 9.08842 6.44979 9.03623 6.44979C8.95796 6.44979 8.87533 6.44979 8.79705 6.44549C8.67529 6.44118 8.55352 6.44118 8.43176 6.44118C8.13604 6.44118 7.82728 6.44118 7.52286 6.4024C6.26172 6.2473 5.41806 5.30374 5.47459 4.10598C5.52678 2.93407 6.51395 2.04221 7.77074 2.02929C8.37087 2.02067 9.03189 2.02067 9.84511 2.02067C10.2582 2.02067 10.6757 2.02067 11.0889 2.02067C11.502 2.02067 11.9195 2.02067 12.3326 2.02067H12.7805C12.6936 1.91727 12.6153 1.82679 12.537 1.74493C12.2543 1.44764 12.0847 1.27099 12.1108 1.03833C12.1369 0.79275 12.363 0.641953 12.7762 0.370519L12.924 0.271423L13.0502 0.396369C13.198 0.542858 13.3502 0.693655 13.4981 0.840144C13.9764 1.31408 14.4722 1.80094 14.9419 2.30503C15.1115 2.48599 15.0767 2.91683 14.9245 3.08056C14.4592 3.58465 13.9721 4.07582 13.5024 4.54975C13.3502 4.70055 13.198 4.85565 13.0502 5.00645L12.9327 5.12709L12.7849 5.04092C12.3848 4.80826 12.1195 4.63592 12.0847 4.37741C12.0499 4.13183 12.2282 3.92502 12.4848 3.65789C12.5805 3.55449 12.6762 3.4554 12.7936 3.33045C12.7762 3.33045 12.7631 3.33045 12.7457 3.33045H12.0195C11.3498 3.33045 10.6844 3.33045 10.0147 3.33045C9.21019 3.33045 8.54047 3.33045 7.9012 3.33476C7.24889 3.33907 6.81836 3.67513 6.80532 4.19646C6.79227 4.72209 7.20105 5.084 7.85337 5.10985C8.11864 5.12278 8.38392 5.12278 8.58396 5.12278C8.69703 5.12278 8.80575 5.12278 8.91882 5.12278C9.03189 5.12278 9.14495 5.12278 9.25802 5.12278C9.44937 5.12278 9.61027 5.12278 9.75378 5.12709C11.1193 5.16156 12.1152 6.07926 12.1195 7.3158C12.1239 7.91899 11.8847 8.47047 11.4498 8.87116C11.0193 9.27185 10.4191 9.4959 9.76248 9.50451C9.17105 9.51313 8.51873 9.51744 7.71856 9.51744C7.29673 9.51744 6.87055 9.51744 6.44872 9.51744C6.02688 9.51744 5.60505 9.51744 5.17887 9.51744H4.76139C4.86141 9.62946 4.94839 9.72424 5.03971 9.81903L5.04406 9.82334C5.33108 10.1206 5.48764 10.2843 5.47024 10.5041C5.45285 10.7281 5.2702 10.866 4.9049 11.1374L4.75269 11.2538L4.63093 11.1202Z" fill="#3EC9D9"/>
<path d="M12.898 0.555795C13.5242 1.18053 14.1721 1.80526 14.7853 2.46015C14.868 2.54632 14.8549 2.85222 14.7636 2.94701C14.1548 3.6062 13.5111 4.23955 12.8936 4.86859C12.1543 4.43774 12.1369 4.34726 12.6414 3.82163C12.8153 3.64067 12.9849 3.45972 13.2415 3.17966C12.9849 3.15381 12.8632 3.12796 12.7458 3.12796C11.8369 3.12796 10.928 3.12365 10.0147 3.12365C9.31022 3.12365 8.60572 3.12365 7.90122 3.12796C7.12714 3.13227 6.60529 3.57174 6.58789 4.20078C6.5705 4.84274 7.05756 5.30375 7.84469 5.33822C8.09257 5.35114 8.34045 5.35114 8.58398 5.35114C8.80577 5.35114 9.0319 5.35114 9.25369 5.35114C9.41894 5.35114 9.57985 5.35114 9.7451 5.35545C10.9888 5.38561 11.8934 6.22146 11.9021 7.32874C11.9064 8.44033 11.0149 9.28479 9.75815 9.30202C9.07974 9.31064 8.39698 9.31495 7.71857 9.31495C6.87056 9.31495 6.0269 9.31064 5.17889 9.31064C5.1267 9.31064 5.07452 9.31064 5.02233 9.31064C4.95275 9.31064 4.87882 9.31064 4.80055 9.31064C4.66139 9.31064 4.50048 9.31064 4.27435 9.31064C4.53962 9.59931 4.70487 9.79319 4.88317 9.97415C5.39633 10.5041 5.39633 10.5041 4.77445 10.9737C4.06995 10.2671 3.36545 9.56053 2.6827 8.87548C3.35676 8.19044 4.06126 7.47953 4.85708 6.66523C5.02233 6.8505 5.19194 7.04438 5.39198 7.26842C5.03538 7.64326 4.71792 7.97501 4.33958 8.3757C4.58311 8.40155 4.71792 8.4274 4.85273 8.4274C5.53549 8.4274 6.21825 8.4274 6.901 8.4274C7.81425 8.4274 8.72749 8.4274 9.64073 8.4274C9.76684 8.4274 9.89731 8.42309 10.0191 8.40586C10.5888 8.31969 10.9932 7.88022 11.0019 7.35028C11.0106 6.80741 10.5801 6.32055 9.99733 6.26023C9.78424 6.23869 9.57115 6.23438 9.35806 6.23438C9.24934 6.23438 9.14497 6.23438 9.03625 6.23438C8.95797 6.23438 8.87969 6.23438 8.80142 6.23007C8.38393 6.22146 7.9621 6.243 7.55332 6.1913C6.3922 6.04481 5.64421 5.19604 5.69205 4.11891C5.73988 3.08057 6.62703 2.26196 7.77076 2.24472C8.46221 2.23611 9.15367 2.23611 9.84077 2.23611C10.6714 2.23611 11.502 2.24041 12.3283 2.24041C12.3848 2.24041 12.4413 2.24041 12.5022 2.24041C12.5718 2.24041 12.6457 2.24041 12.7197 2.24041C12.8588 2.24041 13.0197 2.24041 13.2415 2.24041C12.998 1.96036 12.8501 1.77079 12.6849 1.60276C12.1761 1.05989 12.1761 1.03835 12.898 0.555795ZM12.9545 0L12.6588 0.19819C12.2239 0.486859 11.9369 0.680741 11.8977 1.02111C11.863 1.32271 12.0413 1.53813 12.3022 1.81387C11.9021 1.81387 11.502 1.81387 11.1019 1.81387C10.6888 1.81387 10.2713 1.81387 9.85817 1.81387C9.0406 1.81387 8.38393 1.81818 7.77946 1.82249C7.12279 1.83111 6.50527 2.06807 6.03995 2.486C5.57028 2.91254 5.30066 3.48557 5.27021 4.10599C5.21368 5.41577 6.13127 6.45411 7.50983 6.62215C7.82729 6.66092 8.1404 6.66092 8.44482 6.66092C8.57093 6.66092 8.684 6.66092 8.80577 6.66523C8.87969 6.66523 8.95797 6.66954 9.0493 6.66954C9.10148 6.66954 9.15802 6.66954 9.2102 6.66954C9.26239 6.66954 9.31457 6.66954 9.37111 6.66954C9.56245 6.66954 9.76684 6.67385 9.96254 6.69108C10.3148 6.72555 10.5844 7.01422 10.5801 7.34597C10.5757 7.6648 10.3235 7.92762 9.96689 7.98363C9.86687 7.99655 9.7538 8.00086 9.65378 8.00086C8.55789 8.00086 7.71422 8.00086 6.91405 8.00086C6.34871 8.00086 5.81816 8.00086 5.3137 8.00086L5.33545 7.97932L5.72684 7.5657L5.99646 7.28134L5.73553 6.98837L5.52679 6.7514L5.20063 6.38518L4.89187 6.03619L4.56136 6.36795L2.38698 8.5782L2.08691 8.87979L2.38698 9.18139L4.47874 11.2796L4.74836 11.5511L5.05278 11.3227C5.43982 11.0297 5.67465 10.8531 5.70074 10.5343C5.72249 10.2413 5.54854 10.0345 5.27021 9.75011C5.66595 9.75011 6.06169 9.75011 6.45743 9.75011C6.87926 9.75011 7.30544 9.75011 7.72727 9.75011C8.52744 9.75011 9.17976 9.7458 9.77119 9.73718C10.4844 9.72857 11.1367 9.48298 11.6064 9.04352C12.0847 8.59974 12.3457 7.99225 12.3413 7.32874C12.337 6.67385 12.0717 6.06635 11.589 5.62258C11.1193 5.19173 10.467 4.94184 9.7625 4.9246C9.61464 4.92029 9.45373 4.92029 9.26239 4.92029C9.14932 4.92029 9.03625 4.92029 8.92318 4.92029C8.81011 4.92029 8.7014 4.92029 8.58833 4.92029C8.38828 4.92029 8.12736 4.92029 7.86643 4.90737C7.33153 4.88583 7.01407 4.62301 7.02712 4.2137C7.04016 3.73546 7.49244 3.56312 7.90992 3.56312C8.54919 3.55881 9.2189 3.55881 10.0234 3.55881C10.6888 3.55881 11.3672 3.55881 12.0239 3.55881H12.2978C12.0673 3.80009 11.8238 4.07152 11.8716 4.42051C11.9238 4.80396 12.2891 5.01508 12.6762 5.23912L12.9719 5.41146L13.2111 5.17019C13.3589 5.01939 13.5111 4.86859 13.6633 4.71349C14.1374 4.23524 14.6244 3.74408 15.0941 3.23998C15.2463 3.07626 15.2767 2.8436 15.2811 2.72296C15.2898 2.55924 15.2637 2.3352 15.1115 2.17148C14.6375 1.66738 14.1417 1.17622 13.659 0.702283C13.5068 0.555795 13.3589 0.404998 13.2111 0.258509L12.9545 0Z" fill="#256F7C"/>
</svg>
