<svg width="195" height="35" viewBox="0 0 195 35" fill="none" xmlns="http://www.w3.org/2000/svg">
<path d="M5.78083 14.4416C5.78083 12.8743 6.12548 11.5197 6.81478 10.3778C7.52631 9.23594 8.44908 8.36272 9.58309 7.75819C10.7171 7.13126 11.9512 6.8178 13.2853 6.8178C14.3971 6.8178 15.3865 6.96333 16.2537 7.25441C17.1209 7.54548 17.8991 7.93731 18.5884 8.42989C19.3 8.92247 19.9115 9.45984 20.4229 10.042V4.63476C19.4667 3.87349 18.4217 3.28016 17.2877 2.85474C16.1759 2.42933 14.764 2.21662 13.0518 2.21662C11.273 2.21662 9.61644 2.5077 8.0822 3.08984C6.57019 3.67198 5.24718 4.51161 4.11317 5.60873C3.0014 6.70585 2.13421 8.00448 1.51162 9.50462C0.911263 10.9824 0.611084 12.628 0.611084 14.4416C0.611084 16.2552 0.911263 17.9121 1.51162 19.4123C2.13421 20.89 3.0014 22.1774 4.11317 23.2746C5.24718 24.3717 6.57019 25.2113 8.0822 25.7934C9.61644 26.3756 11.273 26.6667 13.0518 26.6667C14.764 26.6667 16.1759 26.454 17.2877 26.0285C18.4217 25.6031 19.4667 25.0098 20.4229 24.2485V18.8413C19.9115 19.4235 19.3 19.9608 18.5884 20.4534C17.8991 20.946 17.1209 21.3378 16.2537 21.6289C15.3865 21.92 14.3971 22.0655 13.2853 22.0655C11.9512 22.0655 10.7171 21.7632 9.58309 21.1587C8.44908 20.5318 7.52631 19.6474 6.81478 18.5055C6.12548 17.3412 5.78083 15.9866 5.78083 14.4416Z" fill="white"/>
<path d="M29.1043 0H24.7684V26.1965H29.1043V0ZM34.6743 16.7926V26.1965H39.0102V16.1545C39.0102 14.8783 38.8212 13.8035 38.4432 12.9303C38.0652 12.0347 37.4871 11.363 36.7089 10.9152C35.9306 10.4674 34.9411 10.2435 33.7404 10.2435C32.5397 10.2435 31.528 10.5346 30.7053 11.1167C29.8826 11.6989 29.26 12.4825 28.8375 13.4677C28.4373 14.4528 28.2372 15.5612 28.2372 16.7926H29.1043C29.1043 16.1433 29.2266 15.5835 29.4712 15.1133C29.7158 14.6432 30.0716 14.2849 30.5385 14.0386C31.0055 13.7699 31.5391 13.6356 32.1395 13.6356C33.0511 13.6356 33.696 13.9043 34.074 14.4416C34.4742 14.979 34.6743 15.7627 34.6743 16.7926Z" fill="white"/>
<path d="M46.3375 21.3938C46.3375 20.946 46.4376 20.5765 46.6377 20.2855C46.8378 19.972 47.1491 19.7369 47.5716 19.5802C47.9941 19.4011 48.5388 19.3115 49.2059 19.3115C50.0286 19.3115 50.8068 19.4235 51.5406 19.6474C52.2966 19.8713 52.9748 20.2071 53.5751 20.6549V18.6398C53.3528 18.3711 52.9859 18.0912 52.4745 17.8002C51.9631 17.5091 51.3294 17.2628 50.5734 17.0613C49.8396 16.8598 48.9835 16.759 48.0052 16.759C46.0929 16.759 44.6143 17.1956 43.5692 18.0688C42.5241 18.9421 42.0016 20.1287 42.0016 21.6289C42.0016 22.6812 42.2462 23.5768 42.7354 24.3157C43.2468 25.0322 43.9138 25.5807 44.7366 25.9614C45.5593 26.342 46.4487 26.5323 47.4048 26.5323C48.3387 26.5323 49.2281 26.3644 50.0731 26.0285C50.9403 25.6927 51.6407 25.1889 52.1743 24.5172C52.7302 23.8455 53.0081 23.0171 53.0081 22.0319L52.4745 20.0168C52.4745 20.7557 52.3077 21.3938 51.9742 21.9311C51.6407 22.4461 51.2071 22.8491 50.6734 23.1402C50.1398 23.4089 49.5394 23.5432 48.8724 23.5432C48.4054 23.5432 47.9718 23.4649 47.5716 23.3081C47.1936 23.129 46.8934 22.8827 46.671 22.5693C46.4487 22.2334 46.3375 21.8416 46.3375 21.3938ZM44.6699 15.1133C44.8922 14.9566 45.2369 14.7663 45.7038 14.5424C46.1707 14.3185 46.7266 14.1282 47.3715 13.9715C48.0163 13.8147 48.6945 13.7364 49.406 13.7364C49.873 13.7364 50.2954 13.7811 50.6734 13.8707C51.0514 13.9603 51.3738 14.1058 51.6407 14.3073C51.9297 14.5088 52.141 14.7663 52.2744 15.0798C52.4078 15.3708 52.4745 15.7291 52.4745 16.1545V26.1965H56.6436V15.2477C56.6436 14.1954 56.3546 13.3109 55.7765 12.5945C55.1983 11.8556 54.3979 11.2958 53.375 10.9152C52.3522 10.5346 51.1848 10.3442 49.8729 10.3442C48.4499 10.3442 47.1602 10.5458 46.004 10.9488C44.8477 11.3294 43.8694 11.7324 43.0689 12.1578L44.6699 15.1133Z" fill="white"/>
<path d="M58.6943 10.7473V14.4081H68.1666V10.7473H58.6943ZM61.3292 5.37364V26.1965H65.4984V5.37364H61.3292Z" fill="white"/>
<path d="M110.833 10.7513V14.4423H120.386V10.7513H110.833ZM113.49 5.33331V26.328H117.695V5.33331H113.49Z" fill="white"/>
<path d="M126.977 10.7513H122.705V26.328H126.977V10.7513ZM131.517 15.3227L133.502 11.5979C133.188 11.1915 132.773 10.8868 132.257 10.6836C131.764 10.4804 131.237 10.3788 130.677 10.3788C129.869 10.3788 129.085 10.6723 128.322 11.2592C127.56 11.8236 126.943 12.5912 126.472 13.5619C126.001 14.51 125.766 15.6049 125.766 16.8465L126.977 18.0656C126.977 17.3206 127.066 16.6885 127.246 16.1693C127.448 15.6275 127.739 15.2099 128.12 14.9164C128.501 14.6229 128.961 14.4762 129.499 14.4762C129.948 14.4762 130.318 14.5552 130.609 14.7132C130.923 14.8487 131.226 15.0518 131.517 15.3227Z" fill="white"/>
<path d="M142.617 26.6666C144.479 26.6666 146.071 26.3054 147.394 25.583C148.739 24.8381 149.815 23.7319 150.623 22.2645L146.822 21.0793C146.373 21.8243 145.802 22.3887 145.106 22.7725C144.434 23.1337 143.615 23.3143 142.651 23.3143C141.799 23.3143 141.07 23.1224 140.465 22.7386C139.859 22.3548 139.4 21.8017 139.086 21.0793C138.794 20.3569 138.648 19.4765 138.648 18.4381C138.671 17.3545 138.828 16.4515 139.119 15.7291C139.433 14.9841 139.87 14.431 140.431 14.0698C141.014 13.686 141.732 13.4942 142.584 13.4942C143.279 13.4942 143.884 13.6522 144.4 13.9682C144.916 14.2843 145.308 14.7132 145.577 15.255C145.869 15.7968 146.015 16.4515 146.015 17.219C146.015 17.377 145.97 17.5802 145.88 17.8285C145.813 18.0543 145.734 18.2349 145.645 18.3703L146.822 16.8127H136.765V19.5217H150.623C150.645 19.3862 150.656 19.2056 150.656 18.9799C150.679 18.7541 150.69 18.5397 150.69 18.3365C150.69 16.6659 150.376 15.2437 149.748 14.0698C149.12 12.8733 148.201 11.9703 146.99 11.3608C145.802 10.7287 144.355 10.4127 142.651 10.4127C140.947 10.4127 139.467 10.7513 138.211 11.4286C136.955 12.0832 135.98 13.0201 135.285 14.2391C134.612 15.4356 134.276 16.8691 134.276 18.5397C134.276 20.1876 134.612 21.6211 135.285 22.8402C135.98 24.0367 136.955 24.9735 138.211 25.6508C139.467 26.328 140.936 26.6666 142.617 26.6666Z" fill="white"/>
<path d="M157.07 21.4857C157.07 21.0342 157.171 20.6617 157.373 20.3682C157.575 20.0522 157.889 19.8151 158.315 19.6571C158.741 19.4765 159.29 19.3862 159.963 19.3862C160.793 19.3862 161.577 19.4991 162.317 19.7248C163.08 19.9506 163.764 20.2892 164.369 20.7407V18.709C164.145 18.4381 163.775 18.1559 163.259 17.8624C162.744 17.5689 162.104 17.3206 161.342 17.1174C160.602 16.9143 159.739 16.8127 158.752 16.8127C156.824 16.8127 155.332 17.2529 154.279 18.1333C153.225 19.0137 152.698 20.2102 152.698 21.7227C152.698 22.7838 152.944 23.6868 153.438 24.4317C153.953 25.1541 154.626 25.7072 155.456 26.091C156.285 26.4748 157.182 26.6666 158.147 26.6666C159.088 26.6666 159.985 26.4973 160.838 26.1587C161.712 25.8201 162.418 25.3121 162.957 24.6349C163.517 23.9577 163.797 23.1224 163.797 22.1291L163.259 20.0973C163.259 20.8423 163.091 21.4857 162.755 22.0275C162.418 22.5467 161.981 22.9531 161.443 23.2465C160.905 23.5174 160.299 23.6529 159.627 23.6529C159.156 23.6529 158.718 23.5739 158.315 23.4159C157.934 23.2353 157.631 22.9869 157.407 22.6709C157.182 22.3323 157.07 21.9372 157.07 21.4857ZM155.388 15.1534C155.613 14.9954 155.96 14.8035 156.431 14.5778C156.902 14.352 157.463 14.1601 158.113 14.0021C158.763 13.8441 159.447 13.7651 160.165 13.7651C160.636 13.7651 161.062 13.8102 161.443 13.9005C161.824 13.9908 162.149 14.1375 162.418 14.3407C162.71 14.5439 162.923 14.8035 163.057 15.1196C163.192 15.413 163.259 15.7742 163.259 16.2032V26.328H167.464V15.2889C167.464 14.2278 167.172 13.3361 166.589 12.6137C166.006 11.8688 165.199 11.3044 164.167 10.9206C163.136 10.5368 161.959 10.345 160.636 10.345C159.201 10.345 157.9 10.5481 156.734 10.9545C155.568 11.3382 154.581 11.7446 153.774 12.1735L155.388 15.1534Z" fill="white"/>
<path d="M194.389 16.3725C194.389 15.1083 194.209 14.036 193.851 13.1555C193.514 12.2525 192.987 11.5753 192.27 11.1238C191.552 10.6497 190.622 10.4127 189.478 10.4127C188.424 10.4127 187.482 10.6384 186.653 11.0899C185.845 11.5414 185.161 12.2074 184.601 13.0878C184.264 12.2074 183.726 11.5414 182.986 11.0899C182.246 10.6384 181.304 10.4127 180.161 10.4127C179.129 10.4127 178.244 10.6384 177.504 11.0899C176.764 11.5414 176.169 12.1961 175.721 13.0539V10.7513H171.516V26.328H175.721V16.8465C175.721 16.1693 175.833 15.5936 176.057 15.1196C176.281 14.6229 176.595 14.2617 176.999 14.036C177.403 13.7876 177.874 13.6635 178.412 13.6635C179.219 13.6635 179.802 13.9344 180.161 14.4762C180.52 14.9954 180.699 15.7855 180.699 16.8465V26.328H185.038V16.8465C185.038 16.1693 185.15 15.5936 185.374 15.1196C185.599 14.6229 185.913 14.2617 186.316 14.036C186.72 13.7876 187.191 13.6635 187.729 13.6635C188.536 13.6635 189.119 13.9344 189.478 14.4762C189.837 14.9954 190.016 15.7855 190.016 16.8465V26.328H194.389V16.3725Z" fill="white"/>
<path d="M102.615 8.76363C101.865 8.67529 101.514 8.59578 101.155 8.59578C96.4315 8.58695 91.7082 8.57811 86.985 8.60461C84.7209 8.61345 83.1907 10.0799 83.1361 12.1825C83.0892 14.3292 84.5101 15.8664 86.8132 15.9813C88.6713 16.0784 90.5294 15.9813 92.3874 16.0343C96.0255 16.1314 98.6799 18.9319 98.6955 22.6335C98.7112 26.3527 96.0958 29.1797 92.4265 29.2327C87.8125 29.3034 83.1907 29.2592 78.5768 29.2592C77.999 29.2592 77.4291 29.2592 76.383 29.2592C77.1559 30.231 77.6477 30.8671 78.163 31.4766C79.6619 33.2523 79.6619 33.2435 77.8507 34.816C75.7896 32.4484 73.7208 30.0896 71.7222 27.7927C73.6895 25.5046 75.7506 23.1194 78.0927 20.4072C78.5768 21.0345 79.0764 21.6794 79.6541 22.4303C78.608 23.6848 77.6868 24.7979 76.5703 26.1319C77.2808 26.2114 77.679 26.2997 78.0693 26.2997C82.7379 26.3086 87.4143 26.3086 92.083 26.2997C92.4499 26.2997 92.8324 26.2909 93.1916 26.2291C94.8623 25.9375 96.0411 24.4799 96.0646 22.7042C96.088 20.8931 94.8311 19.2676 93.1213 19.0644C91.9659 18.9319 90.787 19.0026 89.6237 18.9761C88.4058 18.9496 87.1723 19.0203 85.97 18.8436C82.574 18.3577 80.388 15.5219 80.5285 11.9175C80.6612 8.4456 83.2688 5.70696 86.618 5.66279C91.232 5.60095 95.8538 5.64512 100.468 5.63629C101.038 5.63629 101.615 5.63629 102.638 5.63629C101.928 4.69102 101.49 4.07262 101.006 3.49839C99.4762 1.67852 99.4762 1.60784 101.592 0C103.427 2.0849 105.324 4.17863 107.119 6.36953C107.361 6.66107 107.315 7.67701 107.057 7.99505C105.269 10.2036 103.388 12.315 101.584 14.4176C99.4216 12.9864 99.3748 12.6684 100.85 10.9192C101.358 10.3096 101.85 9.69123 102.615 8.76363Z" fill="#3EC9D9"/>
</svg>
